<svg xmlns="http://www.w3.org/2000/svg" xmlns:xlink="http://www.w3.org/1999/xlink" contentStyleType="text/css" height="850px" preserveAspectRatio="none" style="width:925px;height:850px;background:#FFFFFF;" version="1.1" viewBox="0 0 925 850" width="925px" zoomAndPan="magnify"><defs/><g><rect fill="none" height="583.1328" style="stroke:#000000;stroke-width:1.5;" width="908.9854" x="10" y="169.5625"/><rect fill="none" height="449.7969" style="stroke:#000000;stroke-width:1.5;" width="811.6641" x="20" y="222.8281"/><rect fill="none" height="166.7969" style="stroke:#000000;stroke-width:1.5;" width="715.668" x="30" y="276.0938"/><rect fill="none" height="77.3984" style="stroke:#000000;stroke-width:1.5;" width="695.668" x="40" y="358.4922"/><rect fill="none" height="77.3984" style="stroke:#000000;stroke-width:1.5;" width="309.0142" x="40" y="588.2266"/><line style="stroke:#181818;stroke-width:0.5;stroke-dasharray:5.0,5.0;" x1="104" x2="104" y1="81.2969" y2="769.6953"/><line style="stroke:#181818;stroke-width:0.5;stroke-dasharray:5.0,5.0;" x1="317.5835" x2="317.5835" y1="81.2969" y2="769.6953"/><line style="stroke:#181818;stroke-width:0.5;stroke-dasharray:5.0,5.0;" x1="653.0313" x2="653.0313" y1="81.2969" y2="769.6953"/><line style="stroke:#181818;stroke-width:0.5;stroke-dasharray:5.0,5.0;" x1="777.668" x2="777.668" y1="81.2969" y2="769.6953"/><line style="stroke:#181818;stroke-width:0.5;stroke-dasharray:5.0,5.0;" x1="869.6641" x2="869.6641" y1="81.2969" y2="769.6953"/><text fill="#000000" font-family="sans-serif" font-size="14" lengthAdjust="spacing" textLength="103.0996" x="50" y="77.9951">&#1055;&#1086;&#1083;&#1100;&#1079;&#1086;&#1074;&#1072;&#1090;&#1077;&#1083;&#1100;</text><ellipse cx="104.5498" cy="13.5" fill="#E2E2F0" rx="8" ry="8" style="stroke:#181818;stroke-width:0.5;"/><path d="M104.5498,21.5 L104.5498,48.5 M91.5498,29.5 L117.5498,29.5 M104.5498,48.5 L91.5498,63.5 M104.5498,48.5 L117.5498,63.5 " fill="none" style="stroke:#181818;stroke-width:0.5;"/><text fill="#000000" font-family="sans-serif" font-size="14" lengthAdjust="spacing" textLength="103.0996" x="50" y="781.6904">&#1055;&#1086;&#1083;&#1100;&#1079;&#1086;&#1074;&#1072;&#1090;&#1077;&#1083;&#1100;</text><ellipse cx="104.5498" cy="793.4922" fill="#E2E2F0" rx="8" ry="8" style="stroke:#181818;stroke-width:0.5;"/><path d="M104.5498,801.4922 L104.5498,828.4922 M91.5498,809.4922 L117.5498,809.4922 M104.5498,828.4922 L91.5498,843.4922 M104.5498,828.4922 L117.5498,843.4922 " fill="none" style="stroke:#181818;stroke-width:0.5;"/><rect fill="#E2E2F0" height="30.2969" rx="2.5" ry="2.5" style="stroke:#181818;stroke-width:0.5;" width="42.4307" x="296.5835" y="50"/><text fill="#000000" font-family="sans-serif" font-size="14" lengthAdjust="spacing" textLength="28.4307" x="303.5835" y="69.9951">&#1050;&#1050;&#1058;</text><rect fill="#E2E2F0" height="30.2969" rx="2.5" ry="2.5" style="stroke:#181818;stroke-width:0.5;" width="42.4307" x="296.5835" y="768.6953"/><text fill="#000000" font-family="sans-serif" font-size="14" lengthAdjust="spacing" textLength="28.4307" x="303.5835" y="788.6904">&#1050;&#1050;&#1058;</text><rect fill="#E2E2F0" height="30.2969" rx="2.5" ry="2.5" style="stroke:#181818;stroke-width:0.5;" width="143.6367" x="582.0313" y="50"/><text fill="#000000" font-family="sans-serif" font-size="14" lengthAdjust="spacing" textLength="129.6367" x="589.0313" y="69.9951">&#1050;&#1091;&#1087;&#1102;&#1088;&#1086;&#1087;&#1088;&#1080;&#1105;&#1084;&#1085;&#1080;&#1082;</text><rect fill="#E2E2F0" height="30.2969" rx="2.5" ry="2.5" style="stroke:#181818;stroke-width:0.5;" width="143.6367" x="582.0313" y="768.6953"/><text fill="#000000" font-family="sans-serif" font-size="14" lengthAdjust="spacing" textLength="129.6367" x="589.0313" y="788.6904">&#1050;&#1091;&#1087;&#1102;&#1088;&#1086;&#1087;&#1088;&#1080;&#1105;&#1084;&#1085;&#1080;&#1082;</text><rect fill="#E2E2F0" height="30.2969" rx="2.5" ry="2.5" style="stroke:#181818;stroke-width:0.5;" width="85.9961" x="735.668" y="50"/><text fill="#000000" font-family="sans-serif" font-size="14" lengthAdjust="spacing" textLength="71.9961" x="742.668" y="69.9951">&#1090;&#1077;&#1088;&#1084;&#1080;&#1085;&#1072;&#1083;</text><rect fill="#E2E2F0" height="30.2969" rx="2.5" ry="2.5" style="stroke:#181818;stroke-width:0.5;" width="85.9961" x="735.668" y="768.6953"/><text fill="#000000" font-family="sans-serif" font-size="14" lengthAdjust="spacing" textLength="71.9961" x="742.668" y="788.6904">&#1090;&#1077;&#1088;&#1084;&#1080;&#1085;&#1072;&#1083;</text><rect fill="#E2E2F0" height="30.2969" rx="2.5" ry="2.5" style="stroke:#181818;stroke-width:0.5;" width="77.3213" x="831.6641" y="50"/><text fill="#000000" font-family="sans-serif" font-size="14" lengthAdjust="spacing" textLength="63.3213" x="838.6641" y="69.9951">&#1055;&#1088;&#1080;&#1085;&#1090;&#1077;&#1088;</text><rect fill="#E2E2F0" height="30.2969" rx="2.5" ry="2.5" style="stroke:#181818;stroke-width:0.5;" width="77.3213" x="831.6641" y="768.6953"/><text fill="#000000" font-family="sans-serif" font-size="14" lengthAdjust="spacing" textLength="63.3213" x="838.6641" y="788.6904">&#1055;&#1088;&#1080;&#1085;&#1090;&#1077;&#1088;</text><polygon fill="#181818" points="305.7988,108.4297,315.7988,112.4297,305.7988,116.4297,309.7988,112.4297" style="stroke:#181818;stroke-width:1;"/><line style="stroke:#181818;stroke-width:1;" x1="104.5498" x2="311.7988" y1="112.4297" y2="112.4297"/><text fill="#000000" font-family="sans-serif" font-size="13" lengthAdjust="spacing" textLength="123.0747" x="111.5498" y="107.3638">&#1055;&#1077;&#1088;&#1077;&#1093;&#1086;&#1076; &#1082; &#1086;&#1087;&#1083;&#1072;&#1090;&#1077;</text><line style="stroke:#181818;stroke-width:1;" x1="317.7988" x2="359.7988" y1="141.5625" y2="141.5625"/><line style="stroke:#181818;stroke-width:1;" x1="359.7988" x2="359.7988" y1="141.5625" y2="154.5625"/><line style="stroke:#181818;stroke-width:1;" x1="318.7988" x2="359.7988" y1="154.5625" y2="154.5625"/><polygon fill="#181818" points="328.7988,150.5625,318.7988,154.5625,328.7988,158.5625,324.7988,154.5625" style="stroke:#181818;stroke-width:1;"/><text fill="#000000" font-family="sans-serif" font-size="13" lengthAdjust="spacing" textLength="308.3374" x="324.7988" y="136.4966">&#1055;&#1088;&#1086;&#1074;&#1077;&#1088;&#1082;&#1072; &#1089;&#1086;&#1089;&#1090;&#1086;&#1103;&#1085;&#1080;&#1103; (&#1050;&#1050;&#1058; &#1085;&#1077; &#1079;&#1072;&#1073;&#1083;&#1086;&#1082;&#1080;&#1088;&#1086;&#1074;&#1072;&#1085;?)</text><path d="M10,169.5625 L74.4429,169.5625 L74.4429,176.6953 L64.4429,186.6953 L10,186.6953 L10,169.5625 " fill="#EEEEEE" style="stroke:#000000;stroke-width:1.5;"/><rect fill="none" height="583.1328" style="stroke:#000000;stroke-width:1.5;" width="908.9854" x="10" y="169.5625"/><text fill="#000000" font-family="sans-serif" font-size="13" font-weight="bold" lengthAdjust="spacing" textLength="19.4429" x="25" y="182.6294">alt</text><text fill="#000000" font-family="sans-serif" font-size="11" font-weight="bold" lengthAdjust="spacing" textLength="147.9575" x="89.4429" y="181.7729">[&#1050;&#1050;&#1058; &#1085;&#1077; &#1079;&#1072;&#1073;&#1083;&#1086;&#1082;&#1080;&#1088;&#1086;&#1074;&#1072;&#1085;]</text><polygon fill="#181818" points="305.7988,203.8281,315.7988,207.8281,305.7988,211.8281,309.7988,207.8281" style="stroke:#181818;stroke-width:1;"/><line style="stroke:#181818;stroke-width:1;" x1="104.5498" x2="311.7988" y1="207.8281" y2="207.8281"/><text fill="#000000" font-family="sans-serif" font-size="13" lengthAdjust="spacing" textLength="134.7227" x="111.5498" y="202.7622">&#1042;&#1099;&#1073;&#1086;&#1088; &#1090;&#1080;&#1087;&#1072; &#1086;&#1087;&#1083;&#1072;&#1090;&#1099;</text><path d="M20,222.8281 L84.4429,222.8281 L84.4429,229.9609 L74.4429,239.9609 L20,239.9609 L20,222.8281 " fill="#EEEEEE" style="stroke:#000000;stroke-width:1.5;"/><rect fill="none" height="449.7969" style="stroke:#000000;stroke-width:1.5;" width="811.6641" x="20" y="222.8281"/><text fill="#000000" font-family="sans-serif" font-size="13" font-weight="bold" lengthAdjust="spacing" textLength="19.4429" x="35" y="235.895">alt</text><text fill="#000000" font-family="sans-serif" font-size="11" font-weight="bold" lengthAdjust="spacing" textLength="204.1768" x="99.4429" y="235.0386">[&#1058;&#1080;&#1087; &#1086;&#1087;&#1083;&#1072;&#1090;&#1099;: &#1050;&#1091;&#1087;&#1102;&#1088;&#1086;&#1087;&#1088;&#1080;&#1105;&#1084;&#1085;&#1080;&#1082;]</text><polygon fill="#181818" points="641.8496,257.0938,651.8496,261.0938,641.8496,265.0938,645.8496,261.0938" style="stroke:#181818;stroke-width:1;"/><line style="stroke:#181818;stroke-width:1;" x1="317.7988" x2="647.8496" y1="261.0938" y2="261.0938"/><text fill="#000000" font-family="sans-serif" font-size="13" lengthAdjust="spacing" textLength="312.0508" x="324.7988" y="256.0278">&#1055;&#1086;&#1076;&#1072;&#1095;&#1072; &#1089;&#1080;&#1075;&#1085;&#1072;&#1083;&#1072; &#1085;&#1072; &#1087;&#1088;&#1080;&#1105;&#1084; &#1076;&#1077;&#1085;&#1077;&#1078;&#1085;&#1099;&#1093; &#1089;&#1088;&#1077;&#1076;&#1089;&#1090;&#1074;</text><path d="M30,276.0938 L106.624,276.0938 L106.624,283.2266 L96.624,293.2266 L30,293.2266 L30,276.0938 " fill="#EEEEEE" style="stroke:#000000;stroke-width:1.5;"/><rect fill="none" height="166.7969" style="stroke:#000000;stroke-width:1.5;" width="715.668" x="30" y="276.0938"/><text fill="#000000" font-family="sans-serif" font-size="13" font-weight="bold" lengthAdjust="spacing" textLength="31.624" x="45" y="289.1606">loop</text><text fill="#000000" font-family="sans-serif" font-size="11" font-weight="bold" lengthAdjust="spacing" textLength="234.8511" x="121.624" y="288.3042">[&#1055;&#1086;&#1082;&#1072; &#1089;&#1091;&#1084;&#1084;&#1072; &#1084;&#1077;&#1085;&#1100;&#1096;&#1077; &#1089;&#1091;&#1084;&#1084;&#1099; &#1086;&#1087;&#1083;&#1072;&#1090;&#1099;]</text><polygon fill="#181818" points="641.8496,310.3594,651.8496,314.3594,641.8496,318.3594,645.8496,314.3594" style="stroke:#181818;stroke-width:1;"/><line style="stroke:#181818;stroke-width:1;" x1="104.5498" x2="647.8496" y1="314.3594" y2="314.3594"/><text fill="#000000" font-family="sans-serif" font-size="13" lengthAdjust="spacing" textLength="123.1445" x="111.5498" y="309.2935">&#1042;&#1085;&#1077;&#1089;&#1077;&#1085;&#1080;&#1077; &#1082;&#1091;&#1087;&#1102;&#1088;&#1099;</text><polygon fill="#181818" points="328.7988,339.4922,318.7988,343.4922,328.7988,347.4922,324.7988,343.4922" style="stroke:#181818;stroke-width:1;"/><line style="stroke:#181818;stroke-width:1;" x1="322.7988" x2="652.8496" y1="343.4922" y2="343.4922"/><text fill="#000000" font-family="sans-serif" font-size="13" lengthAdjust="spacing" textLength="194.9302" x="334.7988" y="338.4263">&#1055;&#1088;&#1086;&#1074;&#1077;&#1088;&#1082;&#1072; &#1085;&#1086;&#1084;&#1080;&#1085;&#1072;&#1083;&#1072; &#1082;&#1091;&#1087;&#1102;&#1088;&#1099;</text><path d="M40,358.4922 L104.4429,358.4922 L104.4429,365.625 L94.4429,375.625 L40,375.625 L40,358.4922 " fill="#EEEEEE" style="stroke:#000000;stroke-width:1.5;"/><rect fill="none" height="77.3984" style="stroke:#000000;stroke-width:1.5;" width="695.668" x="40" y="358.4922"/><text fill="#000000" font-family="sans-serif" font-size="13" font-weight="bold" lengthAdjust="spacing" textLength="19.4429" x="55" y="371.5591">alt</text><text fill="#000000" font-family="sans-serif" font-size="11" font-weight="bold" lengthAdjust="spacing" textLength="201.4268" x="119.4429" y="370.7026">[&#1053;&#1086;&#1084;&#1080;&#1085;&#1072;&#1083; &lt;= &#1086;&#1089;&#1090;&#1072;&#1090;&#1082;&#1072; &#1082; &#1086;&#1087;&#1083;&#1072;&#1090;&#1077;]</text><polygon fill="#181818" points="328.7988,392.7578,318.7988,396.7578,328.7988,400.7578,324.7988,396.7578" style="stroke:#181818;stroke-width:1;"/><line style="stroke:#181818;stroke-width:1;" x1="322.7988" x2="652.8496" y1="396.7578" y2="396.7578"/><text fill="#000000" font-family="sans-serif" font-size="13" lengthAdjust="spacing" textLength="190.3726" x="334.7988" y="391.6919">&#1044;&#1086;&#1073;&#1072;&#1074;&#1083;&#1077;&#1085;&#1080;&#1077; &#1082; &#1086;&#1073;&#1097;&#1077;&#1081; &#1089;&#1091;&#1084;&#1084;&#1077;</text><line style="stroke:#000000;stroke-width:1;stroke-dasharray:2.0,2.0;" x1="40" x2="735.668" y1="405.7578" y2="405.7578"/><polygon fill="#181818" points="115.5498,423.8906,105.5498,427.8906,115.5498,431.8906,111.5498,427.8906" style="stroke:#181818;stroke-width:1;"/><line style="stroke:#181818;stroke-width:1;" x1="109.5498" x2="652.8496" y1="427.8906" y2="427.8906"/><text fill="#000000" font-family="sans-serif" font-size="13" lengthAdjust="spacing" textLength="112.874" x="121.5498" y="422.8247">&#1042;&#1086;&#1079;&#1074;&#1088;&#1072;&#1090; &#1082;&#1091;&#1087;&#1102;&#1088;&#1099;</text><polygon fill="#181818" points="115.5498,467.0234,105.5498,471.0234,115.5498,475.0234,111.5498,471.0234" style="stroke:#181818;stroke-width:1;"/><line style="stroke:#181818;stroke-width:1;" x1="109.5498" x2="316.7988" y1="471.0234" y2="471.0234"/><text fill="#000000" font-family="sans-serif" font-size="13" lengthAdjust="spacing" textLength="129.8286" x="121.5498" y="465.9575">&#1054;&#1087;&#1083;&#1072;&#1090;&#1072; &#1079;&#1072;&#1074;&#1077;&#1088;&#1096;&#1077;&#1085;&#1072;</text><line style="stroke:#000000;stroke-width:1;stroke-dasharray:2.0,2.0;" x1="20" x2="831.6641" y1="480.0234" y2="480.0234"/><text fill="#000000" font-family="sans-serif" font-size="11" font-weight="bold" lengthAdjust="spacing" textLength="153.3716" x="25" y="490.2339">[&#1058;&#1080;&#1087; &#1086;&#1087;&#1083;&#1072;&#1090;&#1099;: &#1090;&#1077;&#1088;&#1084;&#1080;&#1085;&#1072;&#1083;]</text><polygon fill="#181818" points="766.666,510.9609,776.666,514.9609,766.666,518.9609,770.666,514.9609" style="stroke:#181818;stroke-width:1;"/><line style="stroke:#181818;stroke-width:1;" x1="317.7988" x2="772.666" y1="514.9609" y2="514.9609"/><text fill="#000000" font-family="sans-serif" font-size="13" lengthAdjust="spacing" textLength="163.3887" x="324.7988" y="509.895">&#1048;&#1085;&#1080;&#1094;&#1080;&#1072;&#1083;&#1080;&#1079;&#1072;&#1094;&#1080;&#1103; &#1086;&#1087;&#1083;&#1072;&#1090;&#1099;</text><polygon fill="#181818" points="766.666,540.0938,776.666,544.0938,766.666,548.0938,770.666,544.0938" style="stroke:#181818;stroke-width:1;"/><line style="stroke:#181818;stroke-width:1;" x1="104.5498" x2="772.666" y1="544.0938" y2="544.0938"/><text fill="#000000" font-family="sans-serif" font-size="13" lengthAdjust="spacing" textLength="101.1245" x="111.5498" y="539.0278">&#1042;&#1089;&#1090;&#1072;&#1074;&#1082;&#1072; &#1082;&#1072;&#1088;&#1090;&#1099;</text><polygon fill="#181818" points="328.7988,569.2266,318.7988,573.2266,328.7988,577.2266,324.7988,573.2266" style="stroke:#181818;stroke-width:1;"/><line style="stroke:#181818;stroke-width:1;" x1="322.7988" x2="777.666" y1="573.2266" y2="573.2266"/><text fill="#000000" font-family="sans-serif" font-size="13" lengthAdjust="spacing" textLength="140.0737" x="334.7988" y="568.1606">&#1056;&#1077;&#1079;&#1091;&#1083;&#1100;&#1090;&#1072;&#1090; &#1086;&#1087;&#1077;&#1088;&#1072;&#1094;&#1080;&#1080;</text><path d="M40,588.2266 L104.4429,588.2266 L104.4429,595.3594 L94.4429,605.3594 L40,605.3594 L40,588.2266 " fill="#EEEEEE" style="stroke:#000000;stroke-width:1.5;"/><rect fill="none" height="77.3984" style="stroke:#000000;stroke-width:1.5;" width="309.0142" x="40" y="588.2266"/><text fill="#000000" font-family="sans-serif" font-size="13" font-weight="bold" lengthAdjust="spacing" textLength="19.4429" x="55" y="601.2935">alt</text><text fill="#000000" font-family="sans-serif" font-size="11" font-weight="bold" lengthAdjust="spacing" textLength="131.9731" x="119.4429" y="600.437">[&#1054;&#1087;&#1077;&#1088;&#1072;&#1094;&#1080;&#1103; &#1091;&#1089;&#1087;&#1077;&#1096;&#1085;&#1072;]</text><polygon fill="#181818" points="115.5498,622.4922,105.5498,626.4922,115.5498,630.4922,111.5498,626.4922" style="stroke:#181818;stroke-width:1;"/><line style="stroke:#181818;stroke-width:1;" x1="109.5498" x2="316.7988" y1="626.4922" y2="626.4922"/><text fill="#000000" font-family="sans-serif" font-size="13" lengthAdjust="spacing" textLength="129.8286" x="121.5498" y="621.4263">&#1054;&#1087;&#1083;&#1072;&#1090;&#1072; &#1079;&#1072;&#1074;&#1077;&#1088;&#1096;&#1077;&#1085;&#1072;</text><line style="stroke:#000000;stroke-width:1;stroke-dasharray:2.0,2.0;" x1="40" x2="349.0142" y1="635.4922" y2="635.4922"/><polygon fill="#181818" points="115.5498,653.625,105.5498,657.625,115.5498,661.625,111.5498,657.625" style="stroke:#181818;stroke-width:1;"/><line style="stroke:#181818;stroke-width:1;" x1="109.5498" x2="316.7988" y1="657.625" y2="657.625"/><text fill="#000000" font-family="sans-serif" font-size="13" lengthAdjust="spacing" textLength="109.1099" x="121.5498" y="652.5591">&#1054;&#1096;&#1080;&#1073;&#1082;&#1072; &#1086;&#1087;&#1083;&#1072;&#1090;&#1099;</text><polygon fill="#181818" points="858.3247,696.7578,868.3247,700.7578,858.3247,704.7578,862.3247,700.7578" style="stroke:#181818;stroke-width:1;"/><line style="stroke:#181818;stroke-width:1;" x1="317.7988" x2="864.3247" y1="700.7578" y2="700.7578"/><text fill="#000000" font-family="sans-serif" font-size="13" lengthAdjust="spacing" textLength="84.2842" x="324.7988" y="695.6919">&#1055;&#1077;&#1095;&#1072;&#1090;&#1100; &#1095;&#1077;&#1082;&#1072;</text><line style="stroke:#000000;stroke-width:1;stroke-dasharray:2.0,2.0;" x1="10" x2="918.9854" y1="709.7578" y2="709.7578"/><text fill="#000000" font-family="sans-serif" font-size="11" font-weight="bold" lengthAdjust="spacing" textLength="129.0674" x="15" y="719.9683">[&#1050;&#1050;&#1058; &#1079;&#1072;&#1073;&#1083;&#1086;&#1082;&#1080;&#1088;&#1086;&#1074;&#1072;&#1085;]</text><polygon fill="#181818" points="115.5498,740.6953,105.5498,744.6953,115.5498,748.6953,111.5498,744.6953" style="stroke:#181818;stroke-width:1;"/><line style="stroke:#181818;stroke-width:1;" x1="109.5498" x2="316.7988" y1="744.6953" y2="744.6953"/><text fill="#000000" font-family="sans-serif" font-size="13" lengthAdjust="spacing" textLength="189.249" x="121.5498" y="739.6294">&#1054;&#1096;&#1080;&#1073;&#1082;&#1072;: &#1050;&#1050;&#1058; &#1079;&#1072;&#1073;&#1083;&#1086;&#1082;&#1080;&#1088;&#1086;&#1074;&#1072;&#1085;</text><!--SRC=[hLLRJi9G4Fs_gvXF_N03nCTQYF9XGe0e2q2Dhq0q4Z-CYO-uWbAfraBh5cPsv9bxMsWBL4o4fALppvnxvipqKj_lje-8NpZXYGpu4tUVFJdbG9zDftxKFTm_xDHRNU97VDzA8JdZRxcH7lA-SGtbZgSSSyXH0QY4M9vY8MQF9qMM5ytas86CMQM6jdPJ4JLLh8I1d0Cp9ev85V34eOs35HEiID-cHUoHd70Y9q0dSgkAvPOsqZGy1eJTFHw1CG4yJ9CzZlSsJRsPkL4DDKHhrJAKFj8JwQbF8ShmSjL87pHsnpTTAwpKgZj0-EITM0sjEQ5Zq5uwRq9-TwrICR5UPYa4NA25ymUQrfTpuBKNFBP- -dRVPhlTSQJEREmznHSyKqsMWLp1kImk_NB5LdkbUPNL35KVoWXi12sAClYSlOAXSd80IUQZh855SjkmfpoEjdSedJWjn1ALffReZyhkiJu2kG-AUQLAEf9hHBxcncViZUPnO_sDLZJ06fmWwYC7qMKED5e79d_F3U9grkUP6vvxgwphEYfged7obxy92qTCSTFoCZPxiA_z1IBQnb3tqoSS10kpM3M9IvY7hir0kZOZeJVZAkCB7Nq5xoUy1BSR5ASbi3whrD3Cnkivlm3LSeQ1rz1LQjR_sLwOc_KeaHrYEAF5mooR2NVDi-N_1z8p_jAc3GW_0YKpRWBIqxVYuFsZoDgld93x0m00]--></g></svg>